<?xml version="1.0" encoding="UTF-8"?>
<svg id="_Слой_1" data-name="Слой 1" xmlns="http://www.w3.org/2000/svg" width="360" height="160" version="1.1" viewBox="0 0 360 160">
  <defs>
    <style>
      .cls-1 {
        font-family: Arial-Black, Arial;
        font-size: 48px;
        font-weight: 800;
      }

      .cls-1, .cls-2 {
        fill: #fff;
      }

      .cls-3 {
        fill: #919191;
      }

      .cls-3, .cls-2 {
        stroke-width: 0px;
      }

      .cls-4 {
        fill: none;
        stroke: #fff;
        stroke-miterlimit: 10;
        stroke-width: 9px;
      }
    </style>
  </defs>
  <rect class="cls-4" x="6.2" y="64.8" width="347.5" height="90"/>
  <polygon class="cls-3" points="94.9 79.2 40.2 5.2 56.5 55.6 68.9 59.4 77.2 71.2 94.9 79.2"/>
  <path class="cls-2" d="M65.4,115.1c-.3-1.8-1.1-6,1.1-7.7,3.4-2.8,12.1,2.9,13,3.5,2,1.3,3.8,3,7.4,6.4,2.2,2,3.9,3.7,5.1,4.9,6.6-6.2,13.2-12.4,19.8-18.5l-16.9-24.5L18.5,17.9c10.9,15.8,21.8,31.6,32.7,47.3-5.2.8-11.9,3.4-18.9,8.3-10.2,7.1-15,15.7-17.7,20.8-10,18.9-8.3,37.1-7.5,44,.7,6.3,2.1,11.5,3.2,15h86.1c-8-6.5-28.4-24.2-31-38.3ZM87.5,91.3c.2.4.4.8.6,1.2-.3.1-4,1.6-7.4-.7-2.4-1.7-3.7-4.7-3.3-7.7,2.9.8,7.6,2.7,10.1,7.2Z"/>
  <text class="cls-1" transform="translate(113.6 127)"><tspan x="0" y="0">IGNIDRA</tspan></text>
</svg>