<?xml version="1.0" encoding="UTF-8"?>
<svg id="_Слой_1" data-name="Слой 1" xmlns="http://www.w3.org/2000/svg" version="1.1" viewBox="0 0 80 67">
  <defs>
    <style>
      .cls-1 {
        font-family: DreiFraktur, DreiFraktur;
        font-size: 14px;
      }

      .cls-2 {
        fill: #660417;
      }

      .cls-2, .cls-3 {
        stroke-width: 0px;
      }

      .cls-4, .cls-5 {
        letter-spacing: 0em;
      }

      .cls-4, .cls-3 {
        fill: #9d0419;
      }

      .cls-5, .cls-6 {
        fill: #e2d59f;
      }

      .cls-6 {
        letter-spacing: 0em;
      }
    </style>
  </defs>
  <path class="cls-3" d="M41,34.8"/>
  <path class="cls-3" d="M11.1,40.8c.1,0,1.8.7,3.4-.3,1.1-.8,1.7-2.1,1.5-3.5-1.3.4-3.5,1.2-4.6,3.3-.1.2-.2.4-.3.5Z"/>
  <polygon class="cls-3" points="55.8 24.6 34.4 24.2 30.3 29.7 33.8 32.5 55.8 24.6"/>
  <polygon class="cls-2" points="57.2 42.3 40.8 33.8 36.6 35.2 38.6 42.6 57.2 42.3"/>
  <polygon class="cls-2" points="43.1 46 57.5 59.5 38.8 52.3 38.8 46 43.1 46"/>
  <polygon class="cls-2" points="48.3 67 45.9 58.8 38.2 55.8 33.9 67 48.3 67"/>
  <polygon class="cls-2" points="8 33.5 33.1 0 25.6 22.8 19.9 24.6 16.1 29.9 8 33.5"/>
  <text class="cls-1" transform="translate(28.8 50.2)"><tspan class="cls-4" x="0" y="0">I</tspan><tspan class="cls-6" x="5.6" y="0">GNI</tspan><tspan class="cls-5"><tspan x="0" y="16.8" xml:space="preserve">  DRA</tspan></tspan></text>
  <path class="cls-3" d="M21.5,49.8c-1.1,6.4-10.5,14.3-14.2,17.2h12.4c6.5-11.3,8.5-20.7,5-23.5-.6-.5-1.9-1.3-5-.8-2.8,0-6.7,2.4-10.1,6.8-1.8-1.8-3.5-3.5-5.3-5.3,1.8-2.5,5-6.4,10-9.7,4.8-3.2,9.3-4.6,12.3-5.4,5.5-7.8,10.9-15.5,16.4-23.3L8,33.5.2,44.6c3,2.8,6,5.6,9.1,8.4.5-.5,1.3-1.3,2.4-2.2,1.7-1.5,2.5-2.3,3.4-2.9.4-.3,4.4-2.9,6-1.6,1,.8.6,2.7.5,3.5Z"/>
</svg>