<?xml version="1.0" encoding="UTF-8"?>
<svg id="_Слой_1" data-name="Слой 1" xmlns="http://www.w3.org/2000/svg" width="360" height="160" version="1.1" viewBox="0 0 360 160">
  <defs>
    <style>
      .cls-1 {
        fill: #919191;
      }

      .cls-1, .cls-2 {
        stroke-width: 0px;
      }

      .cls-3 {
        fill: none;
        stroke: #fff;
        stroke-miterlimit: 10;
        stroke-width: 9px;
      }

      .cls-2 {
        fill: #fff;
      }
    </style>
  </defs>
  <rect class="cls-3" x="6.2" y="64.8" width="347.5" height="90"/>
  <polygon class="cls-1" points="94.9 79.2 40.2 5.2 56.5 55.6 68.9 59.4 77.2 71.2 94.9 79.2"/>
  <path class="cls-2" d="M65.4,115.1c-.3-1.8-1.1-6,1.1-7.7,3.4-2.8,12.1,2.9,13,3.5,2,1.3,3.8,3,7.4,6.4,2.2,2,3.9,3.7,5.1,4.9,6.6-6.2,13.2-12.4,19.8-18.5l-16.9-24.5L18.5,17.9c10.9,15.8,21.8,31.6,32.7,47.3-5.2.8-11.9,3.4-18.9,8.3-10.2,7.1-15,15.7-17.7,20.8-10,18.9-8.3,37.1-7.5,44,.7,6.3,2.1,11.5,3.2,15h86.1c-8-6.5-28.4-24.2-31-38.3ZM87.5,91.3c.2.4.4.8.6,1.2-.3.1-4,1.6-7.4-.7-2.4-1.7-3.7-4.7-3.3-7.7,2.9.8,7.6,2.7,10.1,7.2Z"/>
  <g>
    <path class="cls-2" d="M117.5,92.6h10.6v34.4h-10.6v-34.4Z"/>
    <path class="cls-2" d="M153.1,114.5v-7.1h16.4v14.6c-3.1,2.1-5.9,3.6-8.3,4.4s-5.3,1.2-8.6,1.2-7.4-.7-10-2.1-4.6-3.5-6-6.2-2.1-5.9-2.1-9.5.8-7,2.3-9.8,3.8-4.9,6.8-6.3c2.3-1.1,5.5-1.7,9.4-1.7s6.6.3,8.5,1,3.4,1.8,4.7,3.2,2.2,3.3,2.8,5.5l-10.2,1.8c-.4-1.3-1.1-2.3-2.1-3s-2.3-1-3.9-1c-2.3,0-4.2.8-5.6,2.4s-2.1,4.2-2.1,7.7.7,6.4,2.1,8,3.3,2.4,5.8,2.4,2.3-.2,3.4-.5,2.3-.9,3.7-1.8v-3.2h-7.1Z"/>
    <path class="cls-2" d="M175.8,92.6h9.9l12.9,19v-19h10v34.4h-10l-12.9-18.9v18.9h-10v-34.4Z"/>
    <path class="cls-2" d="M216.2,92.6h10.6v34.4h-10.6v-34.4Z"/>
    <path class="cls-2" d="M234.6,92.6h15.8c3.1,0,5.6.4,7.5,1.3s3.5,2.1,4.7,3.6,2.2,3.4,2.7,5.5.8,4.3.8,6.7c0,3.7-.4,6.5-1.3,8.5s-2,3.7-3.5,5.1-3.1,2.3-4.8,2.7c-2.3.6-4.4.9-6.3.9h-15.8v-34.4ZM245.2,100.4v18.8h2.6c2.2,0,3.8-.2,4.7-.7s1.7-1.4,2.2-2.6.8-3.2.8-6-.6-6.1-1.8-7.5-3.2-2-5.9-2h-2.6Z"/>
    <path class="cls-2" d="M271.9,127v-34.4h17.7c3.3,0,5.8.3,7.5.8s3.1,1.6,4.2,3.1,1.6,3.4,1.6,5.6-.4,3.6-1.2,4.9c-.8,1.4-1.9,2.5-3.4,3.4-.9.5-2.1,1-3.7,1.4,1.3.4,2.2.8,2.8,1.3.4.3,1,.9,1.7,1.8s1.2,1.6,1.5,2.1l5.1,10h-12l-5.7-10.5c-.7-1.4-1.4-2.2-1.9-2.6-.8-.5-1.6-.8-2.6-.8h-.9v13.9h-10.7ZM282.6,106.6h4.5c.5,0,1.4-.2,2.8-.5.7-.1,1.3-.5,1.7-1.1s.7-1.2.7-2c0-1.1-.4-2-1.1-2.6s-2-.9-4-.9h-4.7v7Z"/>
    <path class="cls-2" d="M330.2,121.3h-12.1l-1.7,5.7h-10.8l12.9-34.4h11.6l12.9,34.4h-11.1l-1.7-5.7ZM328,113.9l-3.8-12.4-3.8,12.4h7.5Z"/>
  </g>
</svg>